<?xml version="1.0" standalone="no"?>
<!DOCTYPE svg PUBLIC "-//W3C//DTD SVG 20010904//EN"
 "http://www.w3.org/TR/2001/REC-SVG-20010904/DTD/svg10.dtd">
<svg version="1.0" xmlns="http://www.w3.org/2000/svg"
 width="2000.000000pt" height="1500.000000pt" viewBox="0 0 2000.000000 1500.000000"
 preserveAspectRatio="xMidYMid meet">

<g transform="translate(0.000000,1500.000000) scale(0.100000,-0.100000)"
fill="#000000" stroke="none">
<path d="M2552 11482 c1 -5 270 -490 597 -1079 l594 -1071 131 -5 c88 -3 154
-12 201 -25 l70 -21 75 22 c70 21 95 22 400 22 l325 0 88 -28 c153 -47 283
-124 391 -228 l59 -58 76 -6 c42 -3 114 -13 160 -21 46 -8 85 -14 87 -12 1 2
-93 179 -209 393 -117 215 -374 687 -572 1050 -197 363 -409 752 -471 865
l-113 205 -946 3 c-521 1 -945 -2 -943 -6z"/>
<path d="M7927 11468 c-8 -13 -124 -223 -257 -468 -134 -245 -436 -798 -672
-1228 -236 -431 -427 -786 -424 -789 14 -14 116 -22 171 -13 33 5 287 9 565 9
342 0 534 4 595 12 l90 12 70 67 c143 136 288 210 488 249 l79 16 170 305 c93
168 361 648 594 1067 233 419 424 767 424 772 0 8 -284 11 -940 11 l-940 0
-13 -22z"/>
<path d="M10875 11478 c-3 -7 -4 -575 -3 -1263 l3 -1250 85 -28 85 -28 60 21
c195 66 417 92 597 70 136 -16 517 -26 836 -22 l232 4 0 454 0 454 678 0 c679
0 874 -7 1032 -36 448 -82 676 -314 729 -744 6 -46 11 -88 11 -92 0 -17 58 -7
76 13 71 79 250 183 389 225 87 27 99 28 367 32 306 4 375 -2 505 -47 230 -79
433 -265 534 -486 17 -37 32 -65 35 -62 10 10 5 472 -6 582 -17 176 -59 409
-96 539 -259 901 -927 1428 -2034 1606 -398 64 -609 69 -2518 70 -1265 0
-1594 -3 -1597 -12z"/>
<path d="M3512 8412 c2 -5 108 -198 236 -429 l232 -419 0 -272 0 -272 160 0
160 0 0 267 0 266 236 426 c131 234 239 429 241 434 2 4 -70 7 -160 7 l-165 0
-138 -252 c-76 -139 -145 -266 -155 -281 l-17 -28 -54 98 c-30 54 -99 180
-153 281 l-98 182 -165 0 c-90 0 -162 -4 -160 -8z"/>
<path d="M8710 7720 l0 -700 163 2 162 3 3 253 2 253 76 -3 76 -3 148 -250
148 -250 182 -3 c149 -2 181 0 177 11 -3 7 -75 127 -161 265 -86 139 -156 256
-155 260 0 4 26 19 57 34 149 71 221 214 209 418 -14 241 -149 369 -422 400
-49 5 -219 10 -377 10 l-288 0 0 -700z m675 395 c53 -27 80 -75 80 -145 -1
-70 -26 -114 -80 -140 -36 -17 -62 -20 -193 -20 l-152 0 0 166 0 166 153 -4
c126 -3 159 -7 192 -23z"/>
<path d="M15940 8206 l0 -175 -72 -3 -73 -3 0 -140 0 -140 73 -3 72 -3 0 -263
c0 -279 5 -316 50 -373 69 -89 205 -120 393 -91 l77 11 0 137 0 137 -52 -9
c-28 -5 -66 -7 -84 -3 -60 11 -64 26 -64 252 l0 203 115 0 115 0 0 145 0 145
-115 0 -115 0 -2 173 -3 172 -157 3 -158 3 0 -175z"/>
<path d="M5310 8083 c-298 -50 -481 -341 -416 -663 53 -260 223 -404 499 -425
228 -17 434 82 525 254 47 88 62 144 69 257 17 289 -134 509 -389 569 -58 14
-227 18 -288 8z m251 -297 c64 -43 93 -116 94 -236 0 -113 -20 -182 -68 -228
-42 -41 -79 -54 -153 -54 -83 -1 -174 48 -174 94 0 10 -4 18 -10 18 -16 0 -33
82 -33 165 0 137 42 219 133 260 55 24 159 15 211 -19z"/>
<path d="M8004 8079 c-59 -7 -139 -40 -196 -80 -37 -27 -41 -24 -36 21 l4 40
-159 -2 -158 -3 0 -510 c1 -280 1 -513 1 -517 0 -5 70 -8 155 -8 l155 0 0 339
0 339 48 30 c65 42 160 72 227 72 l55 0 0 145 c0 132 -2 145 -17 144 -10 -1
-46 -5 -79 -10z"/>
<path d="M10351 8074 c-171 -46 -299 -178 -346 -359 -22 -83 -22 -252 0 -335
48 -187 178 -316 366 -367 86 -23 306 -23 403 1 83 20 186 64 186 80 0 10 -70
227 -75 234 -1 1 -38 -12 -81 -30 -74 -30 -87 -33 -199 -33 -110 0 -124 2
-165 25 -46 26 -95 86 -105 130 l-6 25 328 0 328 0 -2 117 c-1 64 -9 147 -18
184 -52 223 -219 345 -470 343 -49 0 -114 -7 -144 -15z m218 -262 c41 -20 67
-55 76 -99 l7 -33 -162 0 -161 0 7 23 c11 37 31 71 52 90 42 38 127 47 181 19z"/>
<path d="M11440 8074 c-156 -42 -275 -173 -316 -351 -9 -38 -15 -114 -15 -177
-1 -200 47 -333 157 -435 72 -68 139 -98 254 -114 97 -13 202 8 284 58 l56 33
2 -246 3 -247 158 -3 157 -3 0 736 0 735 -160 0 -160 0 0 -30 0 -30 -52 29
c-108 60 -247 77 -368 45z m353 -301 l67 -32 -2 -198 -3 -198 -54 -29 c-57
-31 -149 -44 -215 -32 -45 9 -91 47 -118 100 -30 57 -37 201 -14 279 19 65 68
121 119 136 59 19 146 8 220 -26z"/>
<path d="M14011 8074 c-172 -46 -298 -178 -346 -360 -19 -75 -19 -250 0 -333
43 -181 176 -315 365 -367 49 -14 100 -18 205 -17 154 1 249 19 343 67 l51 26
-39 116 c-22 64 -41 118 -43 120 -2 2 -39 -11 -83 -28 -62 -24 -99 -32 -174
-36 -150 -7 -223 23 -272 113 -15 28 -28 53 -28 57 0 4 147 9 328 10 l327 3
-1 120 c-1 132 -18 214 -59 296 -54 105 -152 180 -280 214 -74 19 -222 19
-294 -1z m235 -269 c30 -19 50 -51 59 -92 l7 -33 -162 0 -161 0 7 23 c19 63
53 102 100 117 39 13 121 4 150 -15z"/>
<path d="M15058 8074 c-116 -28 -183 -76 -229 -164 -21 -40 -24 -59 -24 -160
0 -107 2 -118 27 -161 53 -89 118 -123 328 -169 80 -17 153 -39 162 -47 22
-20 23 -66 2 -87 -24 -25 -59 -29 -173 -23 -114 7 -223 33 -302 72 -26 14 -53
25 -59 25 -6 0 -10 -49 -10 -136 l0 -135 56 -25 c193 -85 489 -94 646 -20 140
66 205 202 178 372 -26 163 -100 219 -357 275 -76 16 -148 34 -160 39 -29 12
-30 50 -2 76 41 37 310 17 425 -31 20 -8 40 -15 45 -15 5 0 9 60 9 134 l0 134
-77 20 c-43 12 -107 26 -143 32 -90 14 -273 11 -342 -6z"/>
<path d="M6177 8053 c-11 -10 -8 -587 3 -690 22 -212 103 -309 292 -349 127
-27 261 -5 359 61 21 14 41 25 44 25 3 0 5 -18 5 -40 l0 -41 158 3 157 3 3
518 2 517 -160 0 -160 0 0 -344 0 -343 -41 -27 c-60 -40 -116 -57 -186 -57
-75 0 -116 19 -140 64 -16 29 -18 66 -18 369 l0 338 -156 0 c-86 0 -159 -3
-162 -7z"/>
<path d="M12430 7712 c0 -206 4 -372 11 -407 33 -179 131 -270 319 -297 124
-17 239 7 335 72 l30 20 5 -38 5 -37 158 -3 157 -3 0 521 0 520 -160 0 -160 0
0 -344 0 -345 -30 -21 c-57 -41 -119 -61 -184 -62 -72 0 -110 15 -140 55 -20
27 -21 42 -24 373 l-3 344 -159 0 -160 0 0 -348z"/>
<path d="M5940 6157 c-156 -54 -247 -68 -472 -74 l-208 -5 0 -1279 0 -1279
925 0 925 0 0 1296 0 1297 -182 -8 c-463 -21 -614 -11 -809 55 -50 16 -91 29
-92 29 -1 -1 -40 -15 -87 -32z"/>
<path d="M15705 6149 c-169 -55 -236 -63 -495 -63 -241 0 -339 9 -459 44 -25
7 -50 6 -90 -5 -139 -35 -281 -48 -486 -42 -121 3 -229 12 -274 21 -41 9 -76
14 -79 12 -2 -3 218 -379 489 -838 271 -458 615 -1040 764 -1293 l272 -460
1039 -3 c571 -1 1045 0 1052 3 8 3 2 20 -22 57 -18 29 -253 409 -521 843 -492
797 -673 1091 -905 1465 -70 113 -132 216 -139 228 -10 19 -70 55 -83 51 -2 0
-30 -10 -63 -20z"/>
<path d="M10995 6125 c-27 -7 -67 -16 -88 -19 l-37 -7 2 -1287 3 -1287 945 0
945 0 3 1178 c1 647 0 1177 -3 1177 -3 0 -31 -17 -63 -39 -116 -78 -244 -130
-374 -151 -48 -8 -167 -10 -353 -8 -252 4 -287 7 -353 27 -215 64 -398 195
-514 366 -24 36 -47 64 -53 64 -5 -1 -32 -7 -60 -14z"/>
</g>
</svg>
